<?xml version="1.0" encoding="UTF-8"?><svg id="Vrstva_1" xmlns="http://www.w3.org/2000/svg" viewBox="0 0 360 360"><defs><style>.cls-1{fill:#333;}.cls-1,.cls-2{stroke-width:0px;}.cls-2{fill:#fff;}</style></defs><path class="cls-1" d="M281.8,0H78.2C35.01,0,0,35,0,78.16v203.67C0,325,35.01,360,78.2,360h203.6c43.19,0,78.2-35,78.2-78.16V78.16C360,35,324.99,0,281.8,0h0Z"/><path class="cls-2" d="M279.63,33.2c26,0,47.16,21.15,47.16,47.14v199.33c0,25.99-21.16,47.14-47.16,47.14H80.37c-26,0-47.16-21.15-47.16-47.14V80.33c0-25.99,21.16-47.14,47.16-47.14h199.27"/><path class="cls-1" d="M163.76,92.32h32.24l62.58,168.31h-34.85l-11.62-33.66h-64.48l-11.38,33.66h-34.85l62.35-168.31ZM202.64,198.53l-22.52-65.9h-.47l-22.52,65.9h45.52Z"/></svg>