<?xml version="1.0" encoding="UTF-8"?><svg id="Vrstva_1" xmlns="http://www.w3.org/2000/svg" viewBox="0 0 1430 360"><defs><style>.cls-1{fill:#333;}.cls-1,.cls-2{stroke-width:0px;}.cls-2{fill:#fff;}</style></defs><path class="cls-1" d="M281.8,0H78.2C35.01,0,0,35,0,78.16v203.67c0,43.17,35.01,78.16,78.2,78.16h203.6c43.19,0,78.2-35,78.2-78.16V78.16C360,35,324.99,0,281.8,0h0Z"/><path class="cls-2" d="M279.63,33.2c26,0,47.16,21.15,47.16,47.14v199.33c0,25.99-21.16,47.14-47.16,47.14H80.37c-26,0-47.16-21.15-47.16-47.14V80.33c0-25.99,21.16-47.14,47.16-47.14h199.27"/><path class="cls-1" d="M510.78,92.34h32.24l62.58,168.3h-34.85l-11.62-33.66h-64.48l-11.38,33.66h-34.85l62.34-168.3ZM549.66,198.53l-22.52-65.9h-.47l-22.52,65.9h45.51Z"/><path class="cls-1" d="M622.19,92.34h32.71l75.62,113.54h.47v-113.54h32.95v168.3h-33.42l-74.67-111.17h-.47v111.17h-33.19V92.34Z"/><path class="cls-1" d="M792.63,92.34h111.65v29.63h-78.7v45.04h65.66v29.87h-65.66v63.77h-32.95V92.34Z"/><path class="cls-1" d="M926.56,92.34h33.9v168.3h-33.9V92.34Z"/><path class="cls-1" d="M992.7,92.34h33.9v138.67h74.43v29.63h-108.33V92.34Z"/><path class="cls-1" d="M1103.25,176.49c0-50.02,34.85-86.28,85.81-86.28s85.57,34.85,85.57,86.28-36.27,86.29-85.57,86.29-85.81-36.27-85.81-86.29ZM1239.79,176.49c0-31.76-21.81-54.99-50.73-54.99-30.34,0-51.2,24.42-51.2,54.99s20.86,55,51.2,55,50.73-23.23,50.73-55Z"/><path class="cls-1" d="M1275.43,92.34h36.03l41.25,120.42h.47l41.01-120.42h35.56l-62.34,168.3h-29.39l-62.58-168.3Z"/><path class="cls-1" d="M163.76,92.32h32.24l62.58,168.31h-34.85l-11.62-33.66h-64.48l-11.38,33.66h-34.85l62.35-168.31ZM202.64,198.53l-22.52-65.9h-.47l-22.52,65.9h45.52Z"/></svg>